<svg width="40" height="40" viewBox="0 0 40 40" fill="none" xmlns="http://www.w3.org/2000/svg">
<path fill-rule="evenodd" clip-rule="evenodd" d="M15.7784 12.5333C16.9021 11.4421 18.4211 10.8333 20 10.8333C21.5789 10.8333 23.0979 11.4421 24.2216 12.5333C25.3462 13.6252 25.9826 15.1115 25.9826 16.6667C25.9826 19.0889 26.6093 20.6949 27.2673 21.7216L27.2776 21.7376C27.5841 22.216 27.8265 22.5943 27.99 22.8697C28.0719 23.0076 28.1467 23.1408 28.2021 23.2594C28.2298 23.3186 28.261 23.3916 28.2854 23.4712C28.3056 23.537 28.3447 23.6797 28.3301 23.8539C28.3203 23.9697 28.2959 24.1676 28.1795 24.3711C28.0642 24.5726 27.9074 24.6941 27.8147 24.7608C27.6067 24.9107 27.3688 24.9448 27.2879 24.9564L27.2842 24.9569C27.1603 24.9747 27.0188 24.9837 26.8745 24.9892C26.5878 25 26.1903 25 25.6941 25H14.3059C13.8097 25 13.4122 25 13.1254 24.9892C12.9812 24.9837 12.8397 24.9747 12.7158 24.9569L12.712 24.9564C12.6312 24.9448 12.3933 24.9107 12.1853 24.7608C12.0926 24.6941 11.9358 24.5726 11.8205 24.3711C11.7041 24.1676 11.6797 23.9697 11.6699 23.8539C11.6552 23.6797 11.6944 23.537 11.7146 23.4712C11.739 23.3916 11.7702 23.3186 11.7978 23.2594C11.8533 23.1408 11.9281 23.0076 12.01 22.8697C12.1735 22.5943 12.4159 22.2159 12.7225 21.7374L12.7327 21.7216C13.3906 20.6949 14.0173 19.0889 14.0173 16.6667C14.0173 15.1115 14.6538 13.6252 15.7784 12.5333ZM20 12.5C18.8475 12.5 17.747 12.9448 16.9394 13.729C16.1326 14.5124 15.684 15.5697 15.684 16.6667C15.684 19.3948 14.9727 21.3151 14.136 22.6208C13.9562 22.9014 13.8057 23.1363 13.6822 23.3322C13.8645 23.3333 14.0777 23.3333 14.3262 23.3333H25.6738C25.9223 23.3333 26.1355 23.3333 26.3177 23.3322C26.1943 23.1363 26.0438 22.9014 25.864 22.6208C25.0273 21.3151 24.316 19.3948 24.316 16.6667C24.316 15.5697 23.8674 14.5124 23.0606 13.729C22.2529 12.9448 21.1524 12.5 20 12.5ZM17.0965 26.9577C17.396 26.6083 17.9221 26.5678 18.2716 26.8673C18.7294 27.2596 19.333 27.5 20 27.5C20.6669 27.5 21.2706 27.2596 21.7284 26.8673C22.0779 26.5678 22.6039 26.6083 22.9034 26.9577C23.2029 27.3072 23.1624 27.8333 22.813 28.1328C22.0604 28.7777 21.0743 29.1667 20 29.1667C18.9257 29.1667 17.9395 28.7777 17.187 28.1328C16.8376 27.8333 16.797 27.3072 17.0965 26.9577Z" fill="white"/>
<g filter="url(#filter0_d_101_851)">
<circle cx="31" cy="8" r="3" fill="#E83A64"/>
</g>
<defs>
<filter id="filter0_d_101_851" x="22" y="3" width="18" height="18" filterUnits="userSpaceOnUse" color-interpolation-filters="sRGB">
<feFlood flood-opacity="0" result="BackgroundImageFix"/>
<feColorMatrix in="SourceAlpha" type="matrix" values="0 0 0 0 0 0 0 0 0 0 0 0 0 0 0 0 0 0 127 0" result="hardAlpha"/>
<feOffset dy="4"/>
<feGaussianBlur stdDeviation="3"/>
<feComposite in2="hardAlpha" operator="out"/>
<feColorMatrix type="matrix" values="0 0 0 0 0.803922 0 0 0 0 0.176471 0 0 0 0 0.176471 0 0 0 0.25 0"/>
<feBlend mode="normal" in2="BackgroundImageFix" result="effect1_dropShadow_101_851"/>
<feBlend mode="normal" in="SourceGraphic" in2="effect1_dropShadow_101_851" result="shape"/>
</filter>
</defs>
</svg>
