<svg width="40" height="40" viewBox="0 0 40 40" fill="none" xmlns="http://www.w3.org/2000/svg">
<path fill-rule="evenodd" clip-rule="evenodd" d="M14.1401 15.3186C13.1137 16.6017 12.5 18.2292 12.5 20C12.5 21.7709 13.1137 23.3984 14.1401 24.6814L15.9244 22.8971C15.3423 22.0798 15 21.0799 15 20C15 18.9202 15.3423 17.9203 15.9243 17.1029L14.1401 15.3186ZM15.3186 14.1401L17.1029 15.9244C17.9202 15.3423 18.9201 15 20 15C21.0798 15 22.0797 15.3423 22.8971 15.9244L24.6814 14.1401C23.3983 13.1137 21.7708 12.5 20 12.5C18.2291 12.5 16.6016 13.1137 15.3186 14.1401ZM26.4782 13.5146C24.8196 11.8579 22.5294 10.8333 20 10.8333C14.9374 10.8333 10.8333 14.9374 10.8333 20C10.8333 22.5295 11.8578 24.8196 13.5145 26.4782C13.5157 26.4794 13.5169 26.4806 13.5182 26.4818C13.5194 26.4831 13.5206 26.4843 13.5218 26.4855C15.1804 28.1422 17.4705 29.1667 20 29.1667C25.0626 29.1667 29.1666 25.0626 29.1666 20C29.1666 17.4705 28.1421 15.1804 26.4854 13.5218C26.4842 13.5206 26.483 13.5194 26.4818 13.5182C26.4806 13.517 26.4794 13.5158 26.4782 13.5146ZM25.8599 15.3186L24.0756 17.1029C24.6577 17.9202 25 18.9201 25 20C25 21.0799 24.6577 22.0798 24.0756 22.8971L25.8599 24.6814C26.8863 23.3983 27.5 21.7709 27.5 20C27.5 18.2292 26.8862 16.6017 25.8599 15.3186ZM24.6814 25.8599L22.8971 24.0756C22.0798 24.6577 21.0798 25 20 25C18.9201 25 17.9202 24.6577 17.1029 24.0756L15.3186 25.8599C16.6016 26.8863 18.2291 27.5 20 27.5C21.7708 27.5 23.3983 26.8863 24.6814 25.8599ZM20 16.6667C18.159 16.6667 16.6666 18.1591 16.6666 20C16.6666 21.841 18.159 23.3333 20 23.3333C21.8409 23.3333 23.3333 21.841 23.3333 20C23.3333 18.1591 21.8409 16.6667 20 16.6667Z" fill="white"/>
</svg>
