<svg width="29" height="20" viewBox="0 0 29 20" fill="none" xmlns="http://www.w3.org/2000/svg">
<path d="M23.9672 14.1748L20.8413 5.56833L20.8391 5.56263H20.7775L20.1337 7.33122L18.9619 10.551L18.9591 10.5484C18.553 10.1901 17.9799 9.96603 17.2583 9.88261L17.0382 9.85989L17.2565 9.83189C18.4466 9.61803 19.2466 8.8664 19.2466 7.96084C19.2466 6.71904 18.0786 5.85228 16.4056 5.85228H12.9246V5.91515H13.9361V12.3317L11.4795 5.56831L11.4773 5.56263H11.4156L10.7719 7.33122L8.2891 14.1526L8.27382 14.1544C8.23139 14.1596 8.18943 14.1638 8.1479 14.1669C8.08545 14.1718 8.02336 14.1748 7.96107 14.1748H5.45241L10.221 5.91513L10.2565 5.85306H4.42426V8.40813H4.48615C4.49712 7.16359 5.22191 5.91513 6.82327 5.91513H8.75519L3.95053 14.2366H10.4233V11.7887H10.3615C10.353 12.8734 9.73811 13.9037 8.40094 14.1364L8.35843 14.1436L9.37679 11.3446H12.2295L13.2575 14.1748H12.2435V14.2367H16.2234V14.1748H15.2051V9.90552H16.3801C17.5759 9.90552 18.2617 10.4397 18.2617 11.3708V12.1281C18.2617 12.2115 18.2674 12.3335 18.2737 12.4355V12.4392L17.6421 14.1744H16.817V14.2363H18.5249V14.1744H17.7087L18.2839 12.5944C18.285 12.6096 18.2856 12.6188 18.2856 12.6188L18.3015 12.7612L18.3168 12.8554C18.4127 13.438 18.6356 13.8663 18.9789 14.1283L19.0282 14.1642C19.2891 14.3455 19.6132 14.4374 19.9922 14.4374C20.4941 14.4374 20.8288 14.3122 21.1051 14.0177L21.0689 13.9836C20.8143 14.2186 20.6006 14.3138 20.3329 14.3138C19.8768 14.3138 19.6381 13.7606 19.6381 13.215V12.1539C19.6405 11.8906 19.5993 11.6288 19.5161 11.379L19.5047 11.3461V11.3449H21.5913L22.6193 14.1752H21.6052V14.237H25.0494V14.1752L23.9672 14.1748ZM9.39949 11.2826L10.8048 7.42172L12.207 11.2826H9.39949ZM15.2057 9.84343V5.91513H16.1026C17.3008 5.91513 17.9333 6.62739 17.9333 7.97417C17.9333 9.40651 17.5702 9.84343 16.3801 9.84343H15.2057ZM19.4804 11.2826L19.4743 11.2674C19.3816 11.0415 19.2466 10.8355 19.0766 10.6603L19.0178 10.6015L19.0116 10.5956L20.1658 7.42172L21.568 11.2826H19.4804Z" fill="black"/>
</svg>
