<svg width="40" height="40" viewBox="0 0 40 40" fill="none" xmlns="http://www.w3.org/2000/svg">
<path fill-rule="evenodd" clip-rule="evenodd" d="M16.3144 10.8333C16.3021 10.8331 16.2897 10.8331 16.2773 10.8333L16.0762 10.8333C15.328 10.8333 14.7161 10.8333 14.2188 10.874C13.7041 10.916 13.2392 11.0057 12.805 11.2269C12.1256 11.5731 11.5731 12.1256 11.2269 12.805C11.0057 13.2392 10.916 13.7041 10.874 14.2188C10.8333 14.7161 10.8333 15.328 10.8333 16.0762V23.9238C10.8333 24.1564 10.8333 24.3758 10.8346 24.5828C10.8325 24.6182 10.8328 24.654 10.8353 24.6897C10.8387 25.1034 10.8482 25.4654 10.874 25.7812C10.916 26.2959 11.0057 26.7608 11.2269 27.195C11.5731 27.8744 12.1256 28.4269 12.805 28.7731C13.2392 28.9943 13.7041 29.084 14.2188 29.1261C14.7161 29.1667 15.328 29.1667 16.0762 29.1667H23.6856C23.6979 29.1669 23.7104 29.167 23.7228 29.1667H23.9238C24.672 29.1667 25.2839 29.1667 25.7812 29.1261C26.2959 29.084 26.7608 28.9943 27.195 28.7731C27.8745 28.4269 28.4269 27.8744 28.7731 27.195C28.9943 26.7608 29.084 26.2959 29.1261 25.7812C29.1667 25.2839 29.1667 24.672 29.1667 23.9238V16.0762C29.1667 15.328 29.1667 14.7161 29.1261 14.2188C29.084 13.7041 28.9943 13.2392 28.7731 12.805C28.4269 12.1256 27.8745 11.5731 27.195 11.2269C26.7608 11.0057 26.2959 10.916 25.7812 10.874C25.2839 10.8333 24.672 10.8333 23.9238 10.8333L16.3144 10.8333ZM24.2452 27.4998C24.8488 27.499 25.2905 27.4939 25.6455 27.4649C26.0571 27.4313 26.2783 27.3696 26.4383 27.2881C26.8042 27.1017 27.1017 26.8042 27.2881 26.4383C27.3696 26.2783 27.4313 26.0571 27.4649 25.6455C27.4994 25.2241 27.5 24.6805 27.5 23.8889V16.1111C27.5 15.3195 27.4994 14.7759 27.4649 14.3545C27.4313 13.9429 27.3696 13.7217 27.2881 13.5617C27.1017 13.1958 26.8042 12.8984 26.4383 12.7119C26.2783 12.6304 26.0571 12.5687 25.6455 12.5351C25.2241 12.5007 24.6805 12.5 23.8889 12.5H17.5786L20.7581 19.6539C20.7607 19.6596 20.7632 19.6653 20.7657 19.671L24.2452 27.4998ZM22.4214 27.5L19.6084 21.1708L12.5089 25.115C12.5141 25.3133 12.5222 25.4879 12.5351 25.6455C12.5687 26.0571 12.6304 26.2783 12.7119 26.4383C12.8984 26.8042 13.1958 27.1017 13.5617 27.2881C13.7217 27.3696 13.9429 27.4313 14.3545 27.4649C14.7759 27.4994 15.3195 27.5 16.1111 27.5H22.4214ZM12.5 23.2134V16.1111C12.5 15.3195 12.5007 14.7759 12.5351 14.3545C12.5687 13.9429 12.6304 13.7217 12.7119 13.5617C12.8984 13.1958 13.1958 12.8984 13.5617 12.7119C13.7217 12.6304 13.9429 12.5687 14.3545 12.5351C14.7095 12.5061 15.1512 12.501 15.7548 12.5002L18.9289 19.6418L12.5 23.2134Z" fill="#898989"/>
</svg>
