<svg width="40" height="40" viewBox="0 0 40 40" fill="none" xmlns="http://www.w3.org/2000/svg">
<path fill-rule="evenodd" clip-rule="evenodd" d="M14.1492 18.3333C14.1492 14.1902 17.512 10.8333 21.6579 10.8333C25.8039 10.8333 29.1667 14.1902 29.1667 18.3333C29.1667 19.2676 28.9952 20.1639 28.6813 20.9911C28.651 21.071 28.6333 21.1177 28.6211 21.1522C28.6194 21.157 28.618 21.1611 28.6169 21.1645C28.617 21.1659 28.6171 21.1674 28.6173 21.169C28.6199 21.1966 28.6245 21.2342 28.6332 21.3056L28.9698 24.0539C28.9853 24.1807 29.003 24.3244 29.0072 24.4494C29.0118 24.5876 29.0061 24.802 28.9036 25.0271C28.7755 25.3084 28.5475 25.533 28.2626 25.6562C28.0343 25.7549 27.8187 25.7557 27.6804 25.7478C27.5556 25.7407 27.4126 25.7196 27.287 25.701L24.6234 25.3085C24.55 25.2977 24.5116 25.2921 24.4835 25.2888C24.4829 25.2887 24.4823 25.2886 24.4817 25.2886C24.4788 25.2895 24.4755 25.2907 24.4717 25.292C24.4364 25.3043 24.3885 25.3223 24.3062 25.3533C23.4815 25.6638 22.5886 25.8333 21.6579 25.8333C21.5103 25.8333 21.3637 25.8291 21.2181 25.8206C20.4279 27.7762 18.5514 29.1667 16.3351 29.1667C15.7308 29.1667 15.1488 29.0623 14.6063 28.8699C14.5167 28.8381 14.4613 28.8184 14.4206 28.8049C14.4141 28.8028 14.4086 28.801 14.4041 28.7995C14.4032 28.7996 14.4024 28.7997 14.4014 28.7998C14.3731 28.803 14.3345 28.8082 14.2626 28.8181L11.78 29.1589C11.51 29.196 11.239 29.0987 11.0542 28.8985C10.8694 28.6982 10.7942 28.4202 10.8528 28.1541L11.3596 25.8527C11.3772 25.7728 11.3867 25.7295 11.3927 25.6977C11.3931 25.6956 11.3935 25.6936 11.3938 25.6917C11.3923 25.6863 11.3903 25.6794 11.3878 25.671C11.3741 25.6255 11.354 25.5636 11.3214 25.4631C11.146 24.9235 11.0515 24.3471 11.0515 23.75C11.0515 21.5649 12.3209 19.6616 14.1641 18.8093C14.1542 18.6518 14.1492 18.4931 14.1492 18.3333ZM15.8159 18.359C15.9866 18.342 16.1598 18.3333 16.3351 18.3333C19.2761 18.3333 21.6187 20.7818 21.6187 23.75C21.6187 23.89 21.6135 24.0289 21.6032 24.1664C21.6214 24.1666 21.6397 24.1667 21.6579 24.1667C22.3849 24.1667 23.0791 24.0345 23.7189 23.7935C23.7305 23.7892 23.7423 23.7847 23.7545 23.7801C23.8714 23.7358 24.0102 23.6833 24.1371 23.6565C24.253 23.632 24.3521 23.6213 24.4706 23.6207C24.5999 23.6199 24.7313 23.6395 24.8368 23.6553C24.8469 23.6568 24.8568 23.6582 24.8664 23.6597L27.286 24.0162L26.9789 21.5082C26.9778 21.4989 26.9766 21.4893 26.9753 21.4795C26.9626 21.3765 26.9468 21.2495 26.9497 21.125C26.9524 21.0107 26.9639 20.9156 26.9885 20.8041C27.0155 20.682 27.0665 20.5481 27.1099 20.4343C27.1144 20.4226 27.1188 20.411 27.1231 20.3998C27.3664 19.7585 27.5 19.0625 27.5 18.3333C27.5 15.1127 24.8854 12.5 21.6579 12.5C18.4304 12.5 15.8158 15.1127 15.8158 18.3333C15.8158 18.3419 15.8159 18.3505 15.8159 18.359ZM19.8373 24.6927C19.9121 24.3922 19.952 24.0764 19.952 23.75C19.952 21.6556 18.3097 20 16.3351 20C14.3605 20 12.7181 21.6556 12.7181 23.75C12.7181 24.1705 12.7846 24.5731 12.9065 24.9481C12.9113 24.9629 12.9162 24.9781 12.9213 24.9934C12.9679 25.1361 13.0207 25.2975 13.0418 25.4331C13.0617 25.5603 13.0665 25.6582 13.0591 25.7868C13.0512 25.9232 13.02 26.0636 12.9945 26.1784C12.992 26.1896 12.9896 26.2005 12.9873 26.2111L12.7376 27.3452L14.0359 27.1669C14.0455 27.1656 14.0553 27.1642 14.0654 27.1628C14.1683 27.1485 14.2954 27.1308 14.4174 27.1317C14.5328 27.1325 14.6188 27.1413 14.7319 27.164C14.852 27.188 14.9959 27.2393 15.1229 27.2846C15.1367 27.2896 15.1503 27.2944 15.1636 27.2991C15.5302 27.4292 15.9239 27.5 16.3351 27.5C17.9863 27.5 19.4052 26.3423 19.8256 24.7383C19.8291 24.7229 19.833 24.7077 19.8373 24.6927Z" fill="#898989"/>
</svg>
