<svg width="40" height="40" viewBox="0 0 40 40" fill="none" xmlns="http://www.w3.org/2000/svg">
<rect width="40" height="40" rx="8" fill="transparent"/>
<path fill-rule="evenodd" clip-rule="evenodd" d="M24.088 14.4816C23.6375 15.3182 23.3333 16.5312 23.3333 17.9167C23.3333 19.3021 23.6375 20.5151 24.088 21.3518C24.4239 21.9756 24.7799 22.295 25.0842 22.4259L25.4772 22.4973C25.8253 22.4671 26.3028 22.1736 26.7453 21.3518C27.1958 20.5151 27.5 19.3021 27.5 17.9167C27.5 16.5312 27.1958 15.3182 26.7453 14.4816C26.3028 13.6597 25.8253 13.3663 25.4772 13.336L25.0842 13.4074C24.7799 13.5384 24.4239 13.8578 24.088 14.4816ZM22.5269 13.8724C21.9796 14.9734 21.6667 16.3954 21.6667 17.9167C21.6667 19.438 21.9796 20.86 22.5269 21.9609L14.6854 20.5352C13.8596 20.3851 13.6145 20.3326 13.4319 20.2428C13.008 20.0347 12.6924 19.6565 12.5634 19.2023C12.5078 19.0065 12.5 18.756 12.5 17.9167C12.5 17.0774 12.5078 16.8269 12.5634 16.6311C12.6924 16.1769 13.008 15.7987 13.4319 15.5905C13.6145 15.5008 13.8596 15.4483 14.6854 15.2981L22.5269 13.8724ZM24.6201 11.7978L14.3872 13.6584C14.3493 13.6653 14.3119 13.672 14.275 13.6787C13.6118 13.7989 13.116 13.8888 12.697 14.0946C11.8494 14.5109 11.2182 15.2673 10.9602 16.1757C10.8326 16.6248 10.8329 17.1286 10.8333 17.8026C10.8333 17.8401 10.8333 17.8781 10.8333 17.9167C10.8333 17.9552 10.8333 17.9932 10.8333 18.0307C10.8329 18.7048 10.8326 19.2086 10.9602 19.6576C11.2182 20.5661 11.8494 21.3224 12.697 21.7388C12.8952 21.8361 13.1106 21.9075 13.3528 21.9685L13.6655 26.3463C13.6795 26.5426 13.6932 26.7351 13.7179 26.8981C13.7452 27.0781 13.7941 27.2878 13.9139 27.4965C14.081 27.7876 14.3322 28.0215 14.6346 28.1675C14.8512 28.2721 15.0639 28.306 15.2454 28.3204C15.4097 28.3334 15.6027 28.3334 15.7995 28.3333H17.3381C17.564 28.3334 17.7821 28.3334 17.9658 28.3179C18.1661 28.3011 18.4044 28.2613 18.6408 28.1339C18.966 27.9586 19.2238 27.6802 19.3736 27.3425C19.4825 27.097 19.5039 26.8563 19.5054 26.6554C19.5067 26.4711 19.4899 26.2536 19.4726 26.0283L19.2441 23.0581L24.6201 24.0355C24.8698 24.1201 25.1356 24.1667 25.4167 24.1667C26.6755 24.1667 27.6259 23.2318 28.2128 22.1419C28.8179 21.0181 29.1667 19.5227 29.1667 17.9167C29.1667 16.3106 28.8179 14.8153 28.2128 13.6914C27.6259 12.6015 26.6755 11.6667 25.4167 11.6667C25.1356 11.6667 24.8698 11.7133 24.6201 11.7978ZM17.5488 22.7498L15.047 22.2949L15.3261 26.2023C15.3426 26.4337 15.3522 26.5589 15.3657 26.6484C15.3663 26.6518 15.3668 26.655 15.3673 26.6581C15.3703 26.6584 15.3736 26.6586 15.377 26.6589C15.4673 26.6661 15.5929 26.6667 15.8248 26.6667H17.3102C17.5745 26.6667 17.721 26.666 17.8261 26.6571C17.8305 26.6568 17.8347 26.6564 17.8386 26.656C17.8387 26.6521 17.8387 26.6479 17.8388 26.6434C17.8395 26.538 17.829 26.3919 17.8087 26.1283L17.5488 22.7498Z" fill="#898989"/>
</svg>
