<svg width="40" height="40" viewBox="0 0 40 40" fill="none" xmlns="http://www.w3.org/2000/svg">
<path fill-rule="evenodd" clip-rule="evenodd" d="M15.9679 10.8333H24.0321C24.4714 10.8333 24.8504 10.8333 25.1625 10.8588C25.492 10.8857 25.8197 10.9452 26.135 11.1058C26.6054 11.3455 26.9878 11.7279 27.2275 12.1984C27.3882 12.5137 27.4476 12.8414 27.4745 13.1708C27.5 13.4829 27.5 13.8619 27.5 14.3012V14.8979C27.5 14.9177 27.5 14.9373 27.5 14.9567C27.5003 15.2455 27.5005 15.5003 27.449 15.7513C27.4037 15.972 27.3288 16.1855 27.2263 16.3861C27.1097 16.6142 26.9504 16.8131 26.7698 17.0385C26.7576 17.0536 26.7454 17.0689 26.733 17.0843L23.7306 20.8374C25.4858 22.8007 25.4208 25.8169 23.5355 27.7022C21.5829 29.6548 18.4171 29.6548 16.4645 27.7022C14.5792 25.8169 14.5142 22.8007 16.2694 20.8374L13.267 17.0843C13.2546 17.0689 13.2424 17.0536 13.2302 17.0385C13.0496 16.8131 12.8903 16.6142 12.7737 16.3861C12.6712 16.1855 12.5963 15.972 12.551 15.7513C12.4995 15.5003 12.4997 15.2455 12.5 14.9567C12.5 14.9373 12.5 14.9177 12.5 14.8979L12.5 14.3012C12.5 13.8619 12.5 13.4829 12.5255 13.1708C12.5524 12.8414 12.6118 12.5137 12.7725 12.1984C13.0122 11.7279 13.3946 11.3455 13.865 11.1058C14.1803 10.9452 14.508 10.8857 14.8375 10.8588C15.1496 10.8333 15.5286 10.8333 15.9679 10.8333ZM17.5701 19.7953C17.8621 19.6328 18.1669 19.5019 18.4795 19.4024L14.1679 13.8589C14.1668 13.9964 14.1667 14.1529 14.1667 14.3333V14.8979C14.1667 15.278 14.1706 15.3525 14.1837 15.4162C14.1988 15.4898 14.2237 15.561 14.2579 15.6278C14.2875 15.6858 14.331 15.7464 14.5684 16.0432L17.5701 19.7953ZM15.2275 12.5065L20 18.6426L24.7725 12.5065C24.5733 12.5003 24.3258 12.5 24 12.5H16C15.6742 12.5 15.4267 12.5003 15.2275 12.5065ZM25.8321 13.8589L21.5206 19.4024C21.8332 19.5019 22.1379 19.6329 22.4299 19.7953L25.4316 16.0432C25.669 15.7464 25.7125 15.6858 25.7421 15.6278C25.7763 15.561 25.8012 15.4898 25.8163 15.4162C25.8294 15.3525 25.8333 15.278 25.8333 14.8979V14.3333C25.8333 14.1529 25.8332 13.9964 25.8321 13.8589ZM22.357 26.5237C23.6588 25.2219 23.6588 23.1114 22.357 21.8096C21.0553 20.5079 18.9447 20.5079 17.643 21.8096C16.3412 23.1114 16.3412 25.2219 17.643 26.5237C18.9447 27.8254 21.0553 27.8254 22.357 26.5237Z" fill="#898989"/>
</svg>
