<svg width="40" height="40" viewBox="0 0 40 40" fill="none" xmlns="http://www.w3.org/2000/svg">
<path fill-rule="evenodd" clip-rule="evenodd" d="M19.8853 11.6666C19.923 11.6666 19.9612 11.6667 20 11.6667C20.0388 11.6667 20.077 11.6666 20.1146 11.6666C20.7775 11.6663 21.2697 11.666 21.696 11.7802C22.8464 12.0885 23.7448 12.987 24.0531 14.1373C24.1217 14.3935 24.149 14.6735 24.1598 15L25.6988 15C26.1381 15 26.517 15 26.8292 15.0255C27.1586 15.0524 27.4863 15.1118 27.8016 15.2725C28.272 15.5122 28.6545 15.8946 28.8942 16.365C29.0548 16.6803 29.1143 17.008 29.1412 17.3375C29.1667 17.6496 29.1667 18.0286 29.1666 18.4679V24.8655C29.1667 25.3048 29.1667 25.6837 29.1412 25.9959C29.1143 26.3253 29.0548 26.653 28.8942 26.9683C28.6545 27.4387 28.272 27.8212 27.8016 28.0609C27.4863 28.2215 27.1586 28.2809 26.8292 28.3079C26.517 28.3334 26.1381 28.3334 25.6988 28.3333H14.3012C13.8619 28.3334 13.4829 28.3334 13.1708 28.3079C12.8413 28.2809 12.5137 28.2215 12.1983 28.0609C11.7279 27.8212 11.3455 27.4387 11.1058 26.9683C10.9451 26.653 10.8857 26.3253 10.8588 25.9959C10.8333 25.6837 10.8333 25.3047 10.8333 24.8655V18.4679C10.8333 18.0286 10.8333 17.6496 10.8588 17.3375C10.8857 17.008 10.9451 16.6803 11.1058 16.365C11.3455 15.8946 11.7279 15.5122 12.1983 15.2725C12.5137 15.1118 12.8413 15.0524 13.1708 15.0255C13.4829 15 13.8619 15 14.3012 15L15.8402 15C15.8509 14.6735 15.8782 14.3935 15.9469 14.1373C16.2551 12.987 17.1536 12.0885 18.3039 11.7802C18.7303 11.666 19.2225 11.6663 19.8853 11.6666ZM14.3333 16.6667C13.8529 16.6667 13.5426 16.6673 13.3065 16.6866C13.0801 16.7051 12.9962 16.7365 12.955 16.7575C12.7982 16.8374 12.6707 16.9649 12.5908 17.1217C12.5698 17.1629 12.5384 17.2468 12.5199 17.4732C12.5006 17.7093 12.5 18.0195 12.5 18.5V24.8333C12.5 25.3138 12.5006 25.624 12.5199 25.8601C12.5384 26.0865 12.5698 26.1705 12.5908 26.2117C12.6707 26.3685 12.7982 26.4959 12.955 26.5758C12.9962 26.5968 13.0801 26.6282 13.3065 26.6467C13.5426 26.666 13.8529 26.6667 14.3333 26.6667H25.6666C26.1471 26.6667 26.4573 26.666 26.6935 26.6467C26.9198 26.6282 27.0038 26.5968 27.045 26.5758C27.2018 26.4959 27.3293 26.3685 27.4092 26.2117C27.4301 26.1705 27.4615 26.0865 27.48 25.8601C27.4993 25.624 27.5 25.3138 27.5 24.8333V18.5C27.5 18.0195 27.4993 17.7093 27.48 17.4732C27.4615 17.2468 27.4301 17.1629 27.4092 17.1217C27.3293 16.9649 27.2018 16.8374 27.045 16.7575C27.0038 16.7365 26.9198 16.7051 26.6935 16.6866C26.4573 16.6673 26.1471 16.6667 25.6666 16.6667H14.3333ZM22.4918 15H17.5082C17.5159 14.7854 17.5302 14.6676 17.5568 14.5686C17.7109 13.9935 18.1601 13.5442 18.7353 13.3901C18.9205 13.3405 19.1714 13.3333 20 13.3333C20.8286 13.3333 21.0794 13.3405 21.2647 13.3901C21.8398 13.5442 22.2891 13.9935 22.4432 14.5686C22.4697 14.6676 22.4841 14.7854 22.4918 15Z" fill="#898989"/>
</svg>
