<svg width="40" height="40" viewBox="0 0 40 40" fill="none" xmlns="http://www.w3.org/2000/svg">
<path fill-rule="evenodd" clip-rule="evenodd" d="M15.1345 11.6667H18.1988C18.6381 11.6666 19.017 11.6666 19.3292 11.6921C19.6586 11.7191 19.9863 11.7785 20.3016 11.9391C20.772 12.1788 21.1545 12.5613 21.3942 13.0317C21.5548 13.347 21.6143 13.6747 21.6412 14.0041C21.6667 14.3163 21.6667 14.6952 21.6666 15.1345V18.3333L24.8654 18.3333C25.3047 18.3333 25.6837 18.3333 25.9958 18.3588C26.3253 18.3857 26.653 18.4452 26.9683 18.6058C27.4387 18.8455 27.8211 19.228 28.0608 19.6984C28.2215 20.0137 28.2809 20.3414 28.3078 20.6708C28.3333 20.9829 28.3333 21.3619 28.3333 21.8012V26.6667C28.7936 26.6667 29.1666 27.0398 29.1666 27.5C29.1666 27.9602 28.7936 28.3333 28.3333 28.3333H11.6666C11.2064 28.3333 10.8333 27.9602 10.8333 27.5C10.8333 27.0398 11.2064 26.6667 11.6666 26.6667V15.1346C11.6666 14.6953 11.6666 14.3163 11.6921 14.0041C11.719 13.6747 11.7785 13.347 11.9391 13.0317C12.1788 12.5613 12.5613 12.1788 13.0317 11.9391C13.347 11.7785 13.6747 11.7191 14.0041 11.6921C14.3163 11.6666 14.6952 11.6666 15.1345 11.6667ZM13.3333 26.6667H20V15.1667C20 14.6862 19.9993 14.376 19.98 14.1399C19.9615 13.9135 19.9301 13.8295 19.9092 13.7883C19.8293 13.6315 19.7018 13.5041 19.545 13.4242C19.5038 13.4032 19.4198 13.3718 19.1935 13.3533C18.9573 13.334 18.6471 13.3333 18.1666 13.3333H15.1666C14.6862 13.3333 14.376 13.334 14.1398 13.3533C13.9135 13.3718 13.8295 13.4032 13.7883 13.4242C13.6315 13.5041 13.504 13.6315 13.4241 13.7883C13.4031 13.8295 13.3717 13.9135 13.3533 14.1399C13.334 14.376 13.3333 14.6862 13.3333 15.1667V26.6667ZM21.6666 20V26.6667H26.6666V21.8333C26.6666 21.3529 26.666 21.0426 26.6467 20.8065C26.6282 20.5801 26.5968 20.4962 26.5758 20.455C26.4959 20.2982 26.3684 20.1707 26.2116 20.0908C26.1704 20.0698 26.0865 20.0384 25.8601 20.0199C25.624 20.0006 25.3138 20 24.8333 20H21.6666ZM14.5833 15.8333C14.5833 15.3731 14.9564 15 15.4166 15H17.9166C18.3769 15 18.75 15.3731 18.75 15.8333C18.75 16.2936 18.3769 16.6667 17.9166 16.6667H15.4166C14.9564 16.6667 14.5833 16.2936 14.5833 15.8333ZM14.5833 19.1667C14.5833 18.7064 14.9564 18.3333 15.4166 18.3333H17.9166C18.3769 18.3333 18.75 18.7064 18.75 19.1667C18.75 19.6269 18.3769 20 17.9166 20H15.4166C14.9564 20 14.5833 19.6269 14.5833 19.1667ZM14.5833 22.5C14.5833 22.0398 14.9564 21.6667 15.4166 21.6667H17.9166C18.3769 21.6667 18.75 22.0398 18.75 22.5C18.75 22.9602 18.3769 23.3333 17.9166 23.3333H15.4166C14.9564 23.3333 14.5833 22.9602 14.5833 22.5Z" fill="#898989"/>
</svg>
