<svg width="40" height="40" viewBox="0 0 40 40" fill="none" xmlns="http://www.w3.org/2000/svg">
<path fill-rule="evenodd" clip-rule="evenodd" d="M21.671 11.2517L21.6689 11.2504C21.1687 10.9553 20.5624 10.8333 20.0031 10.8333C19.4426 10.8333 18.8354 10.9559 18.3328 11.2494L13.7496 13.9262C13.7329 13.9359 13.7165 13.9463 13.7005 13.9572L13.6747 13.9747C13.28 14.2439 12.9452 14.4721 12.6857 14.6798C12.415 14.8964 12.1666 15.1359 11.9869 15.45C11.8024 15.7724 11.7295 16.1041 11.6967 16.4404C11.6666 16.7495 11.6667 17.1181 11.6667 17.531V17.5311V22.4605V22.4605C11.6667 22.8756 11.6666 23.2456 11.6967 23.5557C11.7294 23.8928 11.8021 24.2251 11.9864 24.5481C12.166 24.8629 12.4145 25.1029 12.6855 25.3199C12.9451 25.5278 13.28 25.7561 13.6747 26.0252L13.7005 26.0428C13.7165 26.0537 13.7329 26.0641 13.7496 26.0738L18.3329 28.7506C18.8355 29.0442 19.4426 29.1667 20.0031 29.1667C20.5624 29.1667 21.1687 29.0447 21.6689 28.7496L21.671 28.7483L26.2505 26.0738C26.2672 26.0641 26.2836 26.0537 26.2996 26.0428L26.3253 26.0252L26.3254 26.0252C26.7201 25.7561 27.0549 25.5278 27.3144 25.3202C27.585 25.1036 27.8335 24.864 28.0132 24.55C28.1977 24.2276 28.2706 23.8959 28.3033 23.5596C28.3334 23.2505 28.3334 22.8819 28.3334 22.4689V17.5311C28.3334 17.1181 28.3334 16.7495 28.3033 16.4404C28.2706 16.1041 28.1977 15.7724 28.0132 15.45C27.8335 15.1359 27.585 14.8964 27.3144 14.6798C27.0549 14.4721 26.7201 14.2439 26.3254 13.9748L26.3253 13.9747L26.2996 13.9572C26.2836 13.9463 26.2672 13.9359 26.2505 13.9262L21.671 11.2517ZM19.1672 12.7068C19.3563 12.5964 19.6575 12.5168 20.0031 12.5168C20.3493 12.5168 20.6464 12.5965 20.829 12.7046L25.3911 15.3689C25.8051 15.6512 26.0796 15.8395 26.2794 15.9994C26.4775 16.1579 26.5416 16.2424 26.5702 16.2925C26.594 16.3341 26.6253 16.4064 26.6446 16.6051C26.6658 16.822 26.6667 17.107 26.6667 17.5673V22.4327C26.6667 22.893 26.6658 23.1779 26.6446 23.3948C26.6253 23.5935 26.594 23.6659 26.5702 23.7075C26.5416 23.7576 26.4775 23.8421 26.2794 24.0006C26.0796 24.1605 25.8051 24.3488 25.3911 24.6311L20.8329 27.2932L20.829 27.2954C20.6464 27.4035 20.3493 27.4832 20.0031 27.4832C19.6575 27.4832 19.3562 27.4036 19.1671 27.2932L14.6089 24.6311C14.1949 24.3487 13.9205 24.1605 13.7208 24.0007C13.523 23.8422 13.459 23.7577 13.4304 23.7074C13.4063 23.6652 13.3748 23.592 13.3554 23.3917C13.3343 23.1734 13.3334 22.8867 13.3334 22.4242V17.5673C13.3334 17.107 13.3343 16.822 13.3554 16.6051C13.3747 16.4064 13.406 16.3341 13.4298 16.2925C13.4585 16.2424 13.5225 16.1579 13.7206 15.9994C13.9204 15.8395 14.1949 15.6512 14.6089 15.3689L19.1672 12.7068ZM18.3334 20C18.3334 19.0702 19.0795 18.3165 20 18.3165C20.9205 18.3165 21.6667 19.0702 21.6667 20C21.6667 20.9298 20.9205 21.6835 20 21.6835C19.0795 21.6835 18.3334 20.9298 18.3334 20ZM20 16.633C18.1591 16.633 16.6667 18.1405 16.6667 20C16.6667 21.8596 18.1591 23.367 20 23.367C21.841 23.367 23.3334 21.8596 23.3334 20C23.3334 18.1405 21.841 16.633 20 16.633Z" fill="#898989"/>
</svg>
