<svg width="20" height="20" viewBox="0 0 20 20" fill="none" xmlns="http://www.w3.org/2000/svg">
<path fill-rule="evenodd" clip-rule="evenodd" d="M13.1608 2.3274C14.1766 1.31161 15.8235 1.31161 16.8393 2.3274C17.8551 3.3432 17.8551 4.99012 16.8393 6.00592L6.37034 16.4749C6.35384 16.4914 6.33749 16.5077 6.32127 16.524C6.08174 16.764 5.87054 16.9756 5.61593 17.1316C5.39225 17.2687 5.14839 17.3697 4.89329 17.4309C4.60293 17.5006 4.30397 17.5004 3.9649 17.5C3.94194 17.5 3.9188 17.5 3.89547 17.5H2.50001C2.03978 17.5 1.66668 17.1269 1.66668 16.6667V15.2712C1.66668 15.2479 1.66666 15.2248 1.66664 15.2018C1.66632 14.8627 1.66604 14.5638 1.73576 14.2734C1.797 14.0183 1.89801 13.7745 2.03508 13.5508C2.19111 13.2962 2.4027 13.085 2.64268 12.8454C2.65893 12.8292 2.67531 12.8129 2.69181 12.7964L13.1608 2.3274ZM15.6608 3.50591C15.2959 3.141 14.7042 3.141 14.3393 3.50592L3.87032 13.9749C3.55402 14.2912 3.49569 14.3571 3.45615 14.4216C3.41046 14.4962 3.37679 14.5774 3.35637 14.6625C3.3387 14.7361 3.33335 14.8239 3.33335 15.2712V15.8333H3.89547C4.34278 15.8333 4.43062 15.828 4.50422 15.8103C4.58925 15.7899 4.67053 15.7562 4.7451 15.7105C4.80963 15.671 4.87553 15.6127 5.19183 15.2964L15.6608 4.8274C16.0257 4.46249 16.0257 3.87083 15.6608 3.50591ZM9.16666 16.6667C9.16666 16.2064 9.53976 15.8333 9.99999 15.8333H17.5C17.9602 15.8333 18.3333 16.2064 18.3333 16.6667C18.3333 17.1269 17.9602 17.5 17.5 17.5H9.99999C9.53976 17.5 9.16666 17.1269 9.16666 16.6667Z" fill="black"/>
</svg>
