<svg width="16" height="16" viewBox="0 0 16 16" fill="none" xmlns="http://www.w3.org/2000/svg">
<path fill-rule="evenodd" clip-rule="evenodd" d="M4.23912 5.49526C3.23493 6.33337 2.53219 7.31824 2.17708 7.88052C2.15352 7.91783 2.13704 7.94396 2.12327 7.96664C2.11418 7.98161 2.10818 7.99196 2.10417 7.99918C2.10417 7.99945 2.10417 7.99972 2.10417 7.99999C2.10417 8.00026 2.10417 8.00053 2.10417 8.0008C2.10818 8.00801 2.11418 8.01837 2.12327 8.03334C2.13704 8.05602 2.15352 8.08215 2.17708 8.11946C2.53219 8.68174 3.23493 9.66661 4.23912 10.5047C5.24175 11.3415 6.50472 12 8.00027 12C9.49583 12 10.7588 11.3415 11.7614 10.5047C12.7656 9.66661 13.4684 8.68174 13.8235 8.11946C13.847 8.08215 13.8635 8.05602 13.8773 8.03334C13.8864 8.01837 13.8924 8.00801 13.8964 8.0008C13.8964 8.00053 13.8964 8.00026 13.8964 7.99999C13.8964 7.99972 13.8964 7.99945 13.8964 7.99918C13.8924 7.99197 13.8864 7.98161 13.8773 7.96664C13.8635 7.94396 13.847 7.91783 13.8235 7.88052C13.4684 7.31824 12.7656 6.33337 11.7614 5.49526C10.7588 4.65846 9.49583 3.99999 8.00027 3.99999C6.50472 3.99999 5.24175 4.65846 4.23912 5.49526ZM3.38477 4.47161C4.53717 3.5098 6.09249 2.66666 8.00027 2.66666C9.90805 2.66666 11.4634 3.5098 12.6158 4.47161C13.7666 5.43211 14.5556 6.54285 14.9508 7.16855C14.956 7.17682 14.9614 7.18526 14.9669 7.19388C15.0453 7.31731 15.1471 7.47756 15.1985 7.7021C15.2401 7.8834 15.2401 8.11658 15.1985 8.29788C15.1471 8.52242 15.0453 8.68267 14.9669 8.8061C14.9614 8.81472 14.956 8.82316 14.9508 8.83142C14.5556 9.45713 13.7666 10.5679 12.6158 11.5284C11.4634 12.4902 9.90805 13.3333 8.00027 13.3333C6.09249 13.3333 4.53717 12.4902 3.38477 11.5284C2.23394 10.5679 1.44491 9.45713 1.04975 8.83142C1.04453 8.82316 1.03917 8.81472 1.03369 8.8061C0.95528 8.68267 0.853471 8.52242 0.802003 8.29788C0.760447 8.11658 0.760447 7.8834 0.802003 7.7021C0.853471 7.47756 0.95528 7.3173 1.03369 7.19388C1.03917 7.18526 1.04453 7.17682 1.04975 7.16855C1.44491 6.54285 2.23394 5.43211 3.38477 4.47161ZM8.00027 6.66666C7.26389 6.66666 6.66694 7.26361 6.66694 7.99999C6.66694 8.73637 7.26389 9.33332 8.00027 9.33332C8.73665 9.33332 9.33361 8.73637 9.33361 7.99999C9.33361 7.26361 8.73665 6.66666 8.00027 6.66666ZM5.33361 7.99999C5.33361 6.52723 6.52751 5.33332 8.00027 5.33332C9.47303 5.33332 10.6669 6.52723 10.6669 7.99999C10.6669 9.47275 9.47303 10.6667 8.00027 10.6667C6.52751 10.6667 5.33361 9.47275 5.33361 7.99999Z" fill="white"/>
</svg>
