<svg width="20" height="20" viewBox="0 0 20 20" fill="none" xmlns="http://www.w3.org/2000/svg">
<path fill-rule="evenodd" clip-rule="evenodd" d="M6.46557 1.66666H13.5344C14.2052 1.66665 14.7588 1.66664 15.2098 1.70349C15.6783 1.74176 16.1088 1.82389 16.5133 2.02997C17.1405 2.34955 17.6504 2.85948 17.97 3.48669C18.1761 3.89114 18.2582 4.32172 18.2965 4.79014C18.3333 5.24113 18.3333 5.79475 18.3333 6.46555V13.5344C18.3333 14.2052 18.3333 14.7589 18.2965 15.2098C18.2582 15.6783 18.1761 16.1088 17.97 16.5133C17.6504 17.1405 17.1405 17.6504 16.5133 17.97C16.1088 18.1761 15.6783 18.2582 15.2098 18.2965C14.7589 18.3333 14.2052 18.3333 13.5344 18.3333H6.46555C5.79475 18.3333 5.24113 18.3333 4.79014 18.2965C4.32172 18.2582 3.89114 18.1761 3.48669 17.97C2.85948 17.6504 2.34955 17.1405 2.02997 16.5133C1.82389 16.1088 1.74176 15.6783 1.70349 15.2098C1.66664 14.7588 1.66665 14.2052 1.66666 13.5344V6.46557C1.66665 5.79477 1.66664 5.24113 1.70349 4.79014C1.74176 4.32172 1.82389 3.89114 2.02997 3.48669C2.34955 2.85948 2.85948 2.34955 3.48669 2.02997C3.89114 1.82389 4.32172 1.74176 4.79014 1.70349C5.24113 1.66664 5.79477 1.66665 6.46557 1.66666ZM3.33332 10.8333V13.5C3.33332 14.2138 3.33397 14.6991 3.36462 15.0741C3.39447 15.4395 3.44857 15.6263 3.51498 15.7566C3.67477 16.0702 3.92974 16.3252 4.24334 16.485C4.37367 16.5514 4.56051 16.6055 4.92586 16.6354C5.30093 16.666 5.78617 16.6667 6.49999 16.6667H9.16666V10.8333H3.33332ZM9.16666 9.16666H3.33332V6.49999C3.33332 5.78617 3.33397 5.30093 3.36462 4.92586C3.39447 4.56051 3.44857 4.37367 3.51498 4.24334C3.67477 3.92974 3.92974 3.67477 4.24334 3.51498C4.37367 3.44857 4.56051 3.39447 4.92586 3.36462C5.30093 3.33397 5.78617 3.33332 6.49999 3.33332H9.16666V9.16666ZM10.8333 10.8333V16.6667H13.5C14.2138 16.6667 14.6991 16.666 15.0741 16.6354C15.4395 16.6055 15.6263 16.5514 15.7566 16.485C16.0702 16.3252 16.3252 16.0702 16.485 15.7566C16.5514 15.6263 16.6055 15.4395 16.6354 15.0741C16.666 14.6991 16.6667 14.2138 16.6667 13.5V10.8333H10.8333ZM16.6667 9.16666H10.8333V3.33332H13.5C14.2138 3.33332 14.6991 3.33397 15.0741 3.36462C15.4395 3.39447 15.6263 3.44857 15.7566 3.51498C16.0702 3.67477 16.3252 3.92974 16.485 4.24334C16.5514 4.37367 16.6055 4.56051 16.6354 4.92586C16.666 5.30093 16.6667 5.78617 16.6667 6.49999V9.16666Z" fill="black"/>
</svg>
