<svg width="20" height="20" viewBox="0 0 20 20" fill="none" xmlns="http://www.w3.org/2000/svg">
<g clip-path="url(#clip0_1_1812)">
<path fill-rule="evenodd" clip-rule="evenodd" d="M10 2.49999C5.85787 2.49999 2.50001 5.85786 2.50001 9.99999C2.50001 14.1421 5.85787 17.5 10 17.5C14.1421 17.5 17.5 14.1421 17.5 9.99999C17.5 5.85786 14.1421 2.49999 10 2.49999ZM0.833344 9.99999C0.833344 4.93738 4.9374 0.833328 10 0.833328C15.0626 0.833328 19.1667 4.93738 19.1667 9.99999C19.1667 15.0626 15.0626 19.1667 10 19.1667C4.9374 19.1667 0.833344 15.0626 0.833344 9.99999ZM9.16668 6.66666C9.16668 6.20642 9.53977 5.83333 10 5.83333H10.0083C10.4686 5.83333 10.8417 6.20642 10.8417 6.66666C10.8417 7.1269 10.4686 7.49999 10.0083 7.49999H10C9.53977 7.49999 9.16668 7.1269 9.16668 6.66666ZM10 9.16666C10.4602 9.16666 10.8333 9.53976 10.8333 9.99999V13.3333C10.8333 13.7936 10.4602 14.1667 10 14.1667C9.53977 14.1667 9.16668 13.7936 9.16668 13.3333V9.99999C9.16668 9.53976 9.53977 9.16666 10 9.16666Z" fill="black"/>
</g>
<defs>
<clipPath id="clip0_1_1812">
<rect width="20" height="20" fill="white"/>
</clipPath>
</defs>
</svg>
