<svg width="21" height="20" viewBox="0 0 21 20" fill="none" xmlns="http://www.w3.org/2000/svg">
<path fill-rule="evenodd" clip-rule="evenodd" d="M6.96557 1.66666H14.0344C14.7052 1.66665 15.2588 1.66664 15.7098 1.70349C16.1783 1.74176 16.6088 1.82389 17.0133 2.02997C17.6405 2.34955 18.1504 2.85948 18.47 3.48669C18.6761 3.89114 18.7582 4.32172 18.7965 4.79014C18.8333 5.24113 18.8333 5.79475 18.8333 6.46555V13.5344C18.8333 14.2052 18.8333 14.7589 18.7965 15.2098C18.7582 15.6783 18.6761 16.1088 18.47 16.5133C18.1504 17.1405 17.6405 17.6504 17.0133 17.97C16.6088 18.1761 16.1783 18.2582 15.7098 18.2965C15.2589 18.3333 14.7052 18.3333 14.0344 18.3333H6.96555C6.29475 18.3333 5.74113 18.3333 5.29014 18.2965C4.82172 18.2582 4.39114 18.1761 3.98669 17.97C3.35948 17.6504 2.84955 17.1405 2.52997 16.5133C2.32389 16.1088 2.24176 15.6783 2.20349 15.2098C2.16664 14.7588 2.16665 14.2052 2.16666 13.5344V6.46557C2.16665 5.79477 2.16664 5.24113 2.20349 4.79014C2.24176 4.32172 2.32389 3.89114 2.52997 3.48669C2.84955 2.85948 3.35948 2.34955 3.98669 2.02997C4.39114 1.82389 4.82172 1.74176 5.29014 1.70349C5.74113 1.66664 6.29477 1.66665 6.96557 1.66666ZM3.83332 8.33332V11.6667H17.1667V8.33332H3.83332ZM17.1667 6.66666H3.83332V6.49999C3.83332 5.78617 3.83397 5.30093 3.86462 4.92586C3.89447 4.56051 3.94857 4.37367 4.01498 4.24334C4.17477 3.92974 4.42974 3.67477 4.74334 3.51498C4.87367 3.44857 5.06051 3.39447 5.42586 3.36462C5.80093 3.33397 6.28617 3.33332 6.99999 3.33332H14C14.7138 3.33332 15.1991 3.33397 15.5741 3.36462C15.9395 3.39447 16.1263 3.44857 16.2566 3.51498C16.5702 3.67477 16.8252 3.92974 16.985 4.24334C17.0514 4.37367 17.1055 4.56051 17.1354 4.92586C17.166 5.30093 17.1667 5.78617 17.1667 6.49999V6.66666ZM17.1667 13.3333H3.83332V13.5C3.83332 14.2138 3.83397 14.6991 3.86462 15.0741C3.89447 15.4395 3.94857 15.6263 4.01498 15.7566C4.17477 16.0702 4.42974 16.3252 4.74334 16.485C4.87367 16.5514 5.06051 16.6055 5.42586 16.6354C5.80093 16.666 6.28617 16.6667 6.99999 16.6667H14C14.7138 16.6667 15.1991 16.666 15.5741 16.6354C15.9395 16.6055 16.1263 16.5514 16.2566 16.485C16.5702 16.3252 16.8252 16.0702 16.985 15.7566C17.0514 15.6263 17.1055 15.4395 17.1354 15.0741C17.166 14.6991 17.1667 14.2138 17.1667 13.5V13.3333Z" fill="black"/>
</svg>
