<svg width="16" height="16" viewBox="0 0 16 16" fill="none" xmlns="http://www.w3.org/2000/svg">
<path fill-rule="evenodd" clip-rule="evenodd" d="M6.93668 2.01842C6.8778 2.00428 6.80753 2 6.44967 2H3.46666C3.08229 2 2.83411 2.00052 2.64522 2.01595C2.46411 2.03075 2.39697 2.05586 2.364 2.07266C2.23856 2.13657 2.13658 2.23856 2.07266 2.364C2.05586 2.39697 2.03075 2.46411 2.01595 2.64522C2.00052 2.83411 2 3.08229 2 3.46666L2 6.44967C2 6.80753 2.00428 6.8778 2.01842 6.93667C2.03475 7.0047 2.06168 7.06973 2.09824 7.12938C2.12988 7.18101 2.17653 7.23372 2.42957 7.48676L7.54199 12.5992C7.94579 13.003 8.22065 13.2771 8.45016 13.4719C8.67372 13.6617 8.81001 13.7368 8.92131 13.773C9.1891 13.86 9.47756 13.86 9.74535 13.773C9.85665 13.7368 9.99294 13.6617 10.2165 13.4719C10.446 13.2771 10.7209 13.003 11.1247 12.5992L12.5992 11.1247C13.003 10.7209 13.2771 10.446 13.4719 10.2165C13.6617 9.99294 13.7368 9.85665 13.773 9.74535C13.86 9.47756 13.86 9.1891 13.773 8.92131C13.7368 8.81001 13.6617 8.67372 13.4719 8.45016C13.2771 8.22065 13.003 7.94579 12.5992 7.54199L7.48676 2.42957C7.23372 2.17653 7.18101 2.12987 7.12938 2.09824C7.06973 2.06168 7.0047 2.03475 6.93668 2.01842ZM6.50521 0.666629C6.77647 0.666377 7.01564 0.666154 7.24794 0.721923C7.45201 0.770917 7.6471 0.851726 7.82604 0.961383C8.02974 1.08621 8.19869 1.25548 8.39033 1.44747C8.4033 1.46047 8.41637 1.47357 8.42957 1.48676L13.5615 6.61866C13.9409 6.99812 14.2541 7.31129 14.4884 7.58726C14.7317 7.87388 14.9288 8.16392 15.0411 8.50928C15.2151 9.04487 15.2151 9.62179 15.0411 10.1574C14.9288 10.5027 14.7317 10.7928 14.4884 11.0794C14.2541 11.3554 13.9409 11.6686 13.5615 12.048L12.048 13.5615C11.6685 13.9409 11.3554 14.2541 11.0794 14.4884C10.7928 14.7317 10.5027 14.9288 10.1574 15.0411C9.62179 15.2151 9.04487 15.2151 8.50928 15.0411C8.16392 14.9288 7.87388 14.7317 7.58726 14.4884C7.31129 14.2541 6.9981 13.9409 6.61863 13.5614L1.48676 8.42957C1.47357 8.41638 1.46047 8.4033 1.44747 8.39033C1.25548 8.19869 1.08621 8.02974 0.961383 7.82604C0.851726 7.6471 0.770917 7.45201 0.721923 7.24794C0.666154 7.01564 0.666377 6.77647 0.666629 6.50521C0.666646 6.48685 0.666663 6.46834 0.666663 6.44967L0.666663 3.44097C0.666651 3.08954 0.666641 2.78636 0.687043 2.53664C0.708577 2.27308 0.756121 2.01094 0.884651 1.75868C1.0764 1.38236 1.38236 1.0764 1.75868 0.88465C2.01094 0.756121 2.27308 0.708577 2.53665 0.687043C2.78636 0.666641 3.08954 0.666651 3.44097 0.666663L6.44967 0.666663C6.46834 0.666663 6.48685 0.666646 6.50521 0.666629ZM4.33333 5.33333C4.33333 4.78104 4.78105 4.33333 5.33333 4.33333C5.88562 4.33333 6.33333 4.78104 6.33333 5.33333C6.33333 5.88561 5.88562 6.33333 5.33333 6.33333C4.78105 6.33333 4.33333 5.88561 4.33333 5.33333Z" fill="white"/>
</svg>
