<svg width="20" height="20" viewBox="0 0 20 20" fill="none" xmlns="http://www.w3.org/2000/svg">
<path fill-rule="evenodd" clip-rule="evenodd" d="M6.66669 0.833344C7.12693 0.833344 7.50002 1.20644 7.50002 1.66668V2.50001H12.5V1.66668C12.5 1.20644 12.8731 0.833344 13.3334 0.833344C13.7936 0.833344 14.1667 1.20644 14.1667 1.66668V2.50136C14.5629 2.50409 14.9092 2.51227 15.2099 2.53684C15.6783 2.57511 16.1089 2.65725 16.5133 2.86332C17.1405 3.1829 17.6505 3.69284 17.97 4.32004C18.1761 4.72449 18.2583 5.15507 18.2965 5.62349C18.3334 6.07448 18.3334 6.62811 18.3334 7.29891V10.4167C18.3334 10.8769 17.9603 11.25 17.5 11.25C17.0398 11.25 16.6667 10.8769 16.6667 10.4167V9.16668H3.33335V14.3333C3.33335 15.0472 3.334 15.5324 3.36465 15.9075C3.3945 16.2728 3.4486 16.4597 3.51501 16.59C3.6748 16.9036 3.92977 17.1586 4.24337 17.3184C4.3737 17.3848 4.56054 17.4389 4.92589 17.4687C5.30096 17.4994 5.78621 17.5 6.50002 17.5H10C10.4603 17.5 10.8334 17.8731 10.8334 18.3333C10.8334 18.7936 10.4603 19.1667 10 19.1667H6.46558C5.79479 19.1667 5.24116 19.1667 4.79017 19.1298C4.32175 19.0916 3.89117 19.0094 3.48672 18.8034C2.85951 18.4838 2.34958 17.9739 2.03 17.3466C1.82392 16.9422 1.74179 16.5116 1.70352 16.0432C1.66667 15.5922 1.66668 15.0386 1.66669 14.3678V7.29893C1.66668 6.62812 1.66667 6.07448 1.70352 5.62349C1.74179 5.15507 1.82392 4.72449 2.03 4.32004C2.34958 3.69283 2.85951 3.1829 3.48672 2.86332C3.89117 2.65725 4.32175 2.57511 4.79017 2.53684C5.09084 2.51227 5.43713 2.50409 5.83335 2.50136V1.66668C5.83335 1.20644 6.20645 0.833344 6.66669 0.833344ZM5.83335 4.16815C5.46208 4.17075 5.17055 4.17798 4.92589 4.19797C4.56054 4.22782 4.3737 4.28192 4.24337 4.34833C3.92977 4.50812 3.6748 4.76309 3.51501 5.07669C3.4486 5.20703 3.3945 5.39386 3.36465 5.75921C3.334 6.13428 3.33335 6.61953 3.33335 7.33334V7.50001H16.6667V7.33334C16.6667 6.61953 16.666 6.13428 16.6354 5.75921C16.6055 5.39386 16.5514 5.20703 16.485 5.07669C16.3252 4.76309 16.0703 4.50812 15.7567 4.34833C15.6263 4.28192 15.4395 4.22782 15.0742 4.19797C14.8295 4.17798 14.538 4.17075 14.1667 4.16815V5.00001C14.1667 5.46025 13.7936 5.83334 13.3334 5.83334C12.8731 5.83334 12.5 5.46025 12.5 5.00001V4.16668H7.50002V5.00001C7.50002 5.46025 7.12693 5.83334 6.66669 5.83334C6.20645 5.83334 5.83335 5.46025 5.83335 5.00001V4.16815ZM18.0893 13.1608C18.4147 13.4862 18.4147 14.0138 18.0893 14.3393L14.3393 18.0893C14.0138 18.4147 13.4862 18.4147 13.1608 18.0893L11.4941 16.4226C11.1687 16.0972 11.1687 15.5695 11.4941 15.2441C11.8195 14.9186 12.3472 14.9186 12.6726 15.2441L13.75 16.3215L16.9108 13.1608C17.2362 12.8353 17.7638 12.8353 18.0893 13.1608Z" fill="#898989"/>
</svg>
