<svg width="20" height="20" viewBox="0 0 20 20" fill="none" xmlns="http://www.w3.org/2000/svg">
<path fill-rule="evenodd" clip-rule="evenodd" d="M5.96788 1.66667H14.0321C14.4714 1.66666 14.8504 1.66664 15.1625 1.69215C15.492 1.71907 15.8197 1.7785 16.135 1.93916C16.6054 2.17884 16.9878 2.56129 17.2275 3.0317C17.3882 3.34701 17.4476 3.6747 17.4745 4.00415C17.5 4.31629 17.5 4.69525 17.5 5.13453V10.6988C17.5 11.1381 17.5 11.5171 17.4745 11.8292C17.4476 12.1587 17.3882 12.4863 17.2275 12.8017C16.9878 13.2721 16.6054 13.6545 16.135 13.8942C15.8197 14.0549 15.492 14.1143 15.1625 14.1412C14.8504 14.1667 14.4714 14.1667 14.0321 14.1667H5.9679C5.5286 14.1667 5.14963 14.1667 4.83748 14.1412C4.50802 14.1143 4.18034 14.0549 3.86503 13.8942C3.39462 13.6545 3.01217 13.2721 2.77249 12.8017C2.61182 12.4863 2.55239 12.1587 2.52548 11.8292C2.49997 11.5171 2.49999 11.1381 2.5 10.6988V5.13455C2.49999 4.69526 2.49997 4.31629 2.52548 4.00415C2.55239 3.6747 2.61182 3.34701 2.77249 3.0317C3.01217 2.56129 3.39462 2.17884 3.86503 1.93916C4.18034 1.7785 4.50802 1.71907 4.83748 1.69215C5.14962 1.66664 5.52859 1.66666 5.96788 1.66667ZM4.9732 3.35328C4.74681 3.37178 4.66288 3.40317 4.62168 3.42417C4.46487 3.50406 4.33739 3.63155 4.2575 3.78835C4.2365 3.82955 4.2051 3.91348 4.18661 4.13987C4.16732 4.37598 4.16667 4.68621 4.16667 5.16667V10.6667C4.16667 11.1471 4.16732 11.4574 4.18661 11.6935C4.2051 11.9199 4.2365 12.0038 4.2575 12.045C4.33739 12.2018 4.46487 12.3293 4.62168 12.4092C4.66288 12.4302 4.74681 12.4616 4.9732 12.4801C5.20931 12.4994 5.51954 12.5 6 12.5H14C14.4805 12.5 14.7907 12.4994 15.0268 12.4801C15.2532 12.4616 15.3371 12.4302 15.3783 12.4092C15.5351 12.3293 15.6626 12.2018 15.7425 12.045C15.7635 12.0038 15.7949 11.9199 15.8134 11.6935C15.8327 11.4574 15.8333 11.1471 15.8333 10.6667V5.16667C15.8333 4.68621 15.8327 4.37598 15.8134 4.13987C15.7949 3.91348 15.7635 3.82955 15.7425 3.78835C15.6626 3.63155 15.5351 3.50406 15.3783 3.42417C15.3371 3.40317 15.2532 3.37178 15.0268 3.35328C14.7907 3.33399 14.4805 3.33334 14 3.33334H6C5.51954 3.33334 5.20931 3.33399 4.9732 3.35328Z" fill="#898989"/>
<path fill-rule="evenodd" clip-rule="evenodd" d="M6.03076 15.9684C6.03076 15.5082 6.40386 15.1351 6.8641 15.1351H13.1358C13.5961 15.1351 13.9692 15.5082 13.9692 15.9684C13.9692 16.4287 13.5961 16.8018 13.1358 16.8018H10.8333V17.5H12.4122C12.8724 17.5 13.2455 17.8731 13.2455 18.3333C13.2455 18.7936 12.8724 19.1667 12.4122 19.1667H7.58776C7.12752 19.1667 6.75442 18.7936 6.75442 18.3333C6.75442 17.8731 7.12752 17.5 7.58776 17.5H9.16663V16.8018H6.8641C6.40386 16.8018 6.03076 16.4287 6.03076 15.9684Z" fill="#898989"/>
</svg>
