<svg width="20" height="20" viewBox="0 0 20 20" fill="none" xmlns="http://www.w3.org/2000/svg">
<path fill-rule="evenodd" clip-rule="evenodd" d="M6.66669 0.833332C7.12693 0.833332 7.50002 1.20643 7.50002 1.66667V2.5H12.5V1.66667C12.5 1.20643 12.8731 0.833332 13.3334 0.833332C13.7936 0.833332 14.1667 1.20643 14.1667 1.66667V2.50135C14.5629 2.50408 14.9092 2.51226 15.2099 2.53683C15.6783 2.5751 16.1089 2.65723 16.5133 2.86331C17.1405 3.18289 17.6505 3.69282 17.97 4.32003C18.1761 4.72448 18.2583 5.15506 18.2965 5.62348C18.32 5.91022 18.3285 6.23846 18.3316 6.61193C18.3328 6.63002 18.3334 6.64827 18.3334 6.66666C18.3334 6.68103 18.333 6.69531 18.3323 6.7095C18.3334 6.89503 18.3334 7.09136 18.3334 7.2989V14.3678C18.3334 15.0386 18.3334 15.5922 18.2965 16.0432C18.2583 16.5116 18.1761 16.9422 17.97 17.3466C17.6505 17.9738 17.1405 18.4838 16.5133 18.8034C16.1089 19.0094 15.6783 19.0916 15.2099 19.1298C14.7589 19.1667 14.2053 19.1667 13.5345 19.1667H6.46558C5.79478 19.1667 5.24116 19.1667 4.79017 19.1298C4.32175 19.0916 3.89117 19.0094 3.48672 18.8034C2.85951 18.4838 2.34958 17.9738 2.03 17.3466C1.82392 16.9422 1.74179 16.5116 1.70352 16.0432C1.66667 15.5922 1.66668 15.0386 1.66669 14.3677V7.29892C1.66668 7.09137 1.66668 6.89504 1.66777 6.7095C1.66705 6.69531 1.66669 6.68103 1.66669 6.66666C1.66669 6.64827 1.66728 6.63002 1.66846 6.61193C1.67156 6.23846 1.68009 5.91022 1.70352 5.62348C1.74179 5.15506 1.82392 4.72448 2.03 4.32003C2.34958 3.69282 2.85951 3.18289 3.48672 2.86331C3.89117 2.65723 4.32175 2.5751 4.79017 2.53683C5.09084 2.51226 5.43713 2.50408 5.83335 2.50135V1.66667C5.83335 1.20643 6.20645 0.833332 6.66669 0.833332ZM5.83336 4.16813C5.46208 4.17074 5.17055 4.17797 4.92589 4.19796C4.56054 4.22781 4.3737 4.28191 4.24337 4.34832C3.92977 4.50811 3.6748 4.76308 3.51501 5.07668C3.4486 5.20701 3.3945 5.39385 3.36465 5.7592C3.36267 5.78344 3.36081 5.80814 3.35907 5.83333H16.641C16.6392 5.80814 16.6374 5.78344 16.6354 5.7592C16.6055 5.39385 16.5514 5.20701 16.485 5.07668C16.3252 4.76308 16.0703 4.50811 15.7567 4.34832C15.6263 4.28191 15.4395 4.22781 15.0742 4.19796C14.8295 4.17797 14.538 4.17074 14.1667 4.16813C14.1659 4.6277 13.7931 5 13.3334 5C12.8731 5 12.5 4.6269 12.5 4.16667H7.50002C7.50002 4.6269 7.12693 5 6.66669 5C6.20694 5 5.83415 4.6277 5.83336 4.16813ZM16.6667 7.5H3.33335V14.3333C3.33335 15.0471 3.334 15.5324 3.36465 15.9075C3.3945 16.2728 3.4486 16.4596 3.51501 16.59C3.6748 16.9036 3.92977 17.1586 4.24337 17.3183C4.3737 17.3847 4.56054 17.4389 4.92589 17.4687C5.30096 17.4993 5.7862 17.5 6.50002 17.5H13.5C14.2138 17.5 14.6991 17.4993 15.0742 17.4687C15.4395 17.4389 15.6263 17.3847 15.7567 17.3183C16.0703 17.1586 16.3252 16.9036 16.485 16.59C16.5514 16.4596 16.6055 16.2728 16.6354 15.9075C16.666 15.5324 16.6667 15.0471 16.6667 14.3333V7.5ZM9.99727 9.189C9.07527 8.60203 7.8419 8.54492 6.85243 9.36686C5.67535 10.3446 5.49202 12.0195 6.43715 13.2019C6.97159 13.8705 8.36033 15.0998 9.02235 15.676C9.02655 15.6797 9.03083 15.6834 9.03519 15.6872C9.09792 15.7418 9.17662 15.8104 9.25218 15.8663C9.34317 15.9336 9.47254 16.0162 9.64451 16.0669C9.87379 16.1344 10.1217 16.1344 10.351 16.0669C10.5229 16.0162 10.6523 15.9336 10.7433 15.8663C10.8189 15.8104 10.8976 15.7418 10.9603 15.6872C10.9647 15.6834 10.9689 15.6797 10.9731 15.676C11.6351 15.0998 13.0239 13.8705 13.5583 13.2019C14.4958 12.0291 14.346 10.3388 13.1343 9.3597C12.1397 8.55596 10.9175 8.60255 9.99727 9.189ZM9.37208 10.8259C8.95338 10.35 8.34985 10.2897 7.91741 10.6489C7.42446 11.0584 7.37267 11.703 7.73902 12.1613C8.13439 12.6559 9.2737 13.6817 9.99774 14.3152C10.7218 13.6817 11.8611 12.6559 12.2565 12.1613C12.6305 11.6934 12.5739 11.0497 12.0868 10.656C11.6313 10.288 11.0359 10.357 10.6234 10.8259C10.4652 11.0058 10.2373 11.1088 9.99774 11.1088C9.75823 11.1088 9.53029 11.0058 9.37208 10.8259Z" fill="black"/>
</svg>
