<svg width="20" height="20" viewBox="0 0 20 20" fill="none" xmlns="http://www.w3.org/2000/svg">
<g clip-path="url(#clip0_101_3056)">
<path fill-rule="evenodd" clip-rule="evenodd" d="M7.38819 1.79526C8.8932 0.512696 11.1068 0.512696 12.6118 1.79526L12.0768 2.42305L12.6118 1.79526C12.9898 2.11738 13.4597 2.31205 13.9548 2.35156C15.9259 2.50885 17.4911 4.07407 17.6484 6.04519C17.6879 6.54024 17.8826 7.01022 18.2047 7.38821C19.4873 8.89322 19.4873 11.1068 18.2047 12.6118C17.8826 12.9898 17.6879 13.4598 17.6484 13.9548C17.4911 15.9259 15.9259 17.4912 13.9548 17.6484C13.4597 17.688 12.9898 17.8826 12.6118 18.2047C11.1068 19.4873 8.8932 19.4873 7.38819 18.2047C7.0102 17.8826 6.54022 17.688 6.04516 17.6484C4.07405 17.4912 2.50883 15.9259 2.35153 13.9548C2.31203 13.4598 2.11736 12.9898 1.79523 12.6118L2.42303 12.0768L1.79523 12.6118C0.512673 11.1068 0.512673 8.89322 1.79523 7.38821C2.11736 7.01022 2.31203 6.54024 2.35153 6.04519C2.50883 4.07408 4.07405 2.50885 6.04516 2.35156C6.54022 2.31205 7.0102 2.11738 7.38819 1.79526ZM11.5307 3.06378C10.6487 2.31208 9.3513 2.31208 8.46922 3.06378C7.82429 3.61339 7.02241 3.94554 6.17774 4.01294C5.02248 4.10513 4.10511 5.0225 4.01292 6.17777C3.94551 7.02243 3.61336 7.82431 3.06376 8.46924C2.31205 9.35132 2.31205 10.6487 3.06376 11.5308L2.4295 12.0713L3.06376 11.5308C3.61336 12.1757 3.94551 12.9776 4.01292 13.8222C4.10511 14.9775 5.02248 15.8949 6.17774 15.9871C7.02241 16.0545 7.82429 16.3866 8.46922 16.9362C9.3513 17.6879 10.6487 17.6879 11.5307 16.9362C12.1757 16.3866 12.9775 16.0545 13.8222 15.9871C14.9775 15.8949 15.8948 14.9775 15.987 13.8222C16.0544 12.9776 16.3866 12.1757 16.9362 11.5308C17.6879 10.6487 17.6879 9.35132 16.9362 8.46924C16.3866 7.82431 16.0544 7.02243 15.987 6.17777C15.8948 5.0225 14.9775 4.10513 13.8222 4.01294C12.9775 3.94554 12.1757 3.61339 11.5307 3.06378ZM12.7441 6.07741C13.0695 5.75198 13.5971 5.75198 13.9226 6.07741C14.248 6.40285 14.248 6.93049 13.9226 7.25592L7.2559 13.9226C6.93046 14.248 6.40283 14.248 6.07739 13.9226C5.75195 13.5972 5.75195 13.0695 6.07739 12.7441L12.7441 6.07741ZM6.24998 7.5C6.24998 6.80965 6.80962 6.25 7.49998 6.25C8.19034 6.25 8.74998 6.80965 8.74998 7.5C8.74998 8.19036 8.19034 8.75 7.49998 8.75C6.80962 8.75 6.24998 8.19036 6.24998 7.5ZM11.25 12.5C11.25 11.8096 11.8096 11.25 12.5 11.25C13.1903 11.25 13.75 11.8096 13.75 12.5C13.75 13.1904 13.1903 13.75 12.5 13.75C11.8096 13.75 11.25 13.1904 11.25 12.5Z" fill="#898989"/>
</g>
<defs>
<clipPath id="clip0_101_3056">
<rect width="20" height="20" fill="white"/>
</clipPath>
</defs>
</svg>
