<svg width="20" height="20" viewBox="0 0 20 20" fill="none" xmlns="http://www.w3.org/2000/svg">
<path fill-rule="evenodd" clip-rule="evenodd" d="M6.46561 1.66666H13.5344C14.2052 1.66665 14.7589 1.66664 15.2099 1.70349C15.6783 1.74176 16.1089 1.82389 16.5133 2.02997C17.1405 2.34955 17.6505 2.85948 17.97 3.48669C18.1761 3.89114 18.2583 4.32172 18.2965 4.79014C18.3334 5.24113 18.3334 5.79475 18.3334 6.46555V11.2786C18.3334 11.8367 18.3334 12.2974 18.3076 12.6746C18.281 13.0657 18.2238 13.4274 18.0796 13.7756C17.7413 14.5924 17.0924 15.2413 16.2756 15.5796C15.9275 15.7238 15.5657 15.7809 15.1746 15.8076C14.7975 15.8333 14.3367 15.8333 13.7786 15.8333H13.75C13.3029 15.8333 13.2141 15.8386 13.1419 15.8556C13.016 15.8853 12.8987 15.944 12.7994 16.0269C12.7424 16.0744 12.685 16.1423 12.4167 16.5L11.1859 18.1411C11.1081 18.2448 11.0202 18.3622 10.9355 18.4563C10.8422 18.5601 10.6871 18.7129 10.4531 18.8039C10.1617 18.9172 9.83836 18.9172 9.54693 18.8039C9.31299 18.7129 9.15786 18.5601 9.06452 18.4563C8.97988 18.3622 8.89194 18.2448 8.81415 18.1411L7.58335 16.5C7.31507 16.1423 7.25763 16.0744 7.20064 16.0269C7.10132 15.944 6.98406 15.8853 6.85815 15.8556C6.78591 15.8386 6.69716 15.8333 6.25002 15.8333H6.22146C5.6633 15.8333 5.20258 15.8333 4.82541 15.8076C4.43433 15.7809 4.07259 15.7238 3.72441 15.5796C2.90765 15.2413 2.25874 14.5924 1.92042 13.7756C1.7762 13.4274 1.71909 13.0657 1.69241 12.6746C1.66667 12.2974 1.66668 11.8367 1.66669 11.2785L1.66669 6.46557C1.66668 5.79477 1.66667 5.24113 1.70352 4.79014C1.74179 4.32172 1.82392 3.89114 2.03 3.48669C2.34958 2.85948 2.85951 2.34955 3.48672 2.02997C3.89117 1.82389 4.32175 1.74176 4.79017 1.70349C5.24116 1.66664 5.7948 1.66665 6.46561 1.66666ZM4.92589 3.36462C4.56054 3.39447 4.3737 3.44857 4.24337 3.51498C3.92977 3.67477 3.6748 3.92974 3.51501 4.24334C3.4486 4.37367 3.3945 4.56051 3.36465 4.92586C3.334 5.30093 3.33335 5.78617 3.33335 6.49999V11.25C3.33335 11.8438 3.33381 12.2475 3.35521 12.5612C3.3761 12.8674 3.41414 13.0265 3.46022 13.1378C3.62938 13.5462 3.95384 13.8706 4.36222 14.0398C4.47346 14.0859 4.63265 14.1239 4.93886 14.1448C5.25256 14.1662 5.65619 14.1667 6.25002 14.1667C6.2735 14.1667 6.29678 14.1666 6.31987 14.1666C6.65785 14.1663 6.95511 14.166 7.24107 14.2335C7.6188 14.3227 7.97058 14.4986 8.26856 14.7473C8.49413 14.9355 8.67227 15.1735 8.8748 15.4441C8.88864 15.4626 8.9026 15.4812 8.91669 15.5L10 16.9444L11.0834 15.5C11.0974 15.4812 11.1114 15.4626 11.1252 15.4441C11.3278 15.1735 11.5059 14.9355 11.7315 14.7473C12.0295 14.4986 12.3812 14.3227 12.759 14.2335C13.0449 14.166 13.3422 14.1663 13.6802 14.1666C13.7033 14.1666 13.7265 14.1667 13.75 14.1667C14.3439 14.1667 14.7475 14.1662 15.0612 14.1448C15.3674 14.1239 15.5266 14.0859 15.6378 14.0398C16.0462 13.8706 16.3707 13.5462 16.5398 13.1378C16.5859 13.0265 16.6239 12.8674 16.6448 12.5612C16.6662 12.2475 16.6667 11.8438 16.6667 11.25V6.49999C16.6667 5.78617 16.666 5.30093 16.6354 4.92586C16.6055 4.56051 16.5514 4.37367 16.485 4.24334C16.3252 3.92974 16.0703 3.67477 15.7567 3.51498C15.6263 3.44857 15.4395 3.39447 15.0742 3.36462C14.6991 3.33397 14.2138 3.33332 13.5 3.33332H6.50002C5.78621 3.33332 5.30096 3.33397 4.92589 3.36462Z" fill="#898989"/>
</svg>
