<svg width="40" height="40" viewBox="0 0 40 40" fill="none" xmlns="http://www.w3.org/2000/svg">
<path fill-rule="evenodd" clip-rule="evenodd" d="M10.8333 12.5C10.8333 12.0398 11.2064 11.6667 11.6666 11.6667H28.3333C28.7935 11.6667 29.1666 12.0398 29.1666 12.5C29.1666 12.9602 28.7935 13.3333 28.3333 13.3333V19.3678C28.3333 20.0386 28.3333 20.5922 28.2965 21.0432C28.2582 21.5116 28.1761 21.9422 27.97 22.3466C27.6504 22.9738 27.1405 23.4838 26.5133 23.8033C26.1088 24.0094 25.6782 24.0916 25.2098 24.1298C24.7588 24.1667 24.2052 24.1667 23.5344 24.1667H22.3017L25.5335 26.8598C25.887 27.1544 25.9348 27.6799 25.6402 28.0335C25.3455 28.387 24.8201 28.4348 24.4665 28.1402L21.1736 25.3961C21.0421 25.2866 20.9306 25.1937 20.8333 25.1142V27.5C20.8333 27.9602 20.4602 28.3333 20 28.3333C19.5397 28.3333 19.1666 27.9602 19.1666 27.5V25.1142C19.0694 25.1937 18.9578 25.2866 18.8263 25.3961L15.5335 28.1402C15.1799 28.4348 14.6544 28.387 14.3598 28.0335C14.0652 27.6799 14.1129 27.1544 14.4665 26.8598L17.6983 24.1667H16.4656C15.7948 24.1667 15.2411 24.1667 14.7901 24.1298C14.3217 24.0916 13.8911 24.0094 13.4867 23.8033C12.8595 23.4838 12.3495 22.9738 12.03 22.3466C11.8239 21.9422 11.7417 21.5116 11.7035 21.0432C11.6666 20.5922 11.6666 20.0385 11.6666 19.3677V13.3333C11.2064 13.3333 10.8333 12.9602 10.8333 12.5ZM13.3333 13.3333V19.3333C13.3333 20.0471 13.334 20.5324 13.3646 20.9075C13.3945 21.2728 13.4486 21.4596 13.515 21.59C13.6748 21.9036 13.9297 22.1585 14.2433 22.3183C14.3737 22.3847 14.5605 22.4388 14.9258 22.4687C15.3009 22.4993 15.7862 22.5 16.5 22.5H23.5C24.2138 22.5 24.699 22.4993 25.0741 22.4687C25.4395 22.4388 25.6263 22.3847 25.7566 22.3183C26.0702 22.1585 26.3252 21.9036 26.485 21.59C26.5514 21.4596 26.6055 21.2728 26.6354 20.9075C26.666 20.5324 26.6666 20.0471 26.6666 19.3333V13.3333H13.3333ZM23.3333 15C23.7935 15 24.1666 15.3731 24.1666 15.8333V20C24.1666 20.4602 23.7935 20.8333 23.3333 20.8333C22.8731 20.8333 22.5 20.4602 22.5 20V15.8333C22.5 15.3731 22.8731 15 23.3333 15ZM20 16.6667C20.4602 16.6667 20.8333 17.0398 20.8333 17.5V20C20.8333 20.4602 20.4602 20.8333 20 20.8333C19.5397 20.8333 19.1666 20.4602 19.1666 20V17.5C19.1666 17.0398 19.5397 16.6667 20 16.6667ZM16.6666 18.3333C17.1269 18.3333 17.5 18.7064 17.5 19.1667V20C17.5 20.4602 17.1269 20.8333 16.6666 20.8333C16.2064 20.8333 15.8333 20.4602 15.8333 20V19.1667C15.8333 18.7064 16.2064 18.3333 16.6666 18.3333Z" fill="#898989"/>
</svg>
