<svg width="40" height="40" viewBox="0 0 40 40" fill="none" xmlns="http://www.w3.org/2000/svg">
<path fill-rule="evenodd" clip-rule="evenodd" d="M17.9166 13.3333C16.5359 13.3333 15.4166 14.4526 15.4166 15.8333C15.4166 17.214 16.5359 18.3333 17.9166 18.3333C19.2974 18.3333 20.4166 17.214 20.4166 15.8333C20.4166 14.4526 19.2974 13.3333 17.9166 13.3333ZM13.75 15.8333C13.75 13.5321 15.6155 11.6667 17.9166 11.6667C20.2178 11.6667 22.0833 13.5321 22.0833 15.8333C22.0833 18.1345 20.2178 20 17.9166 20C15.6155 20 13.75 18.1345 13.75 15.8333ZM22.1442 12.4296C22.3169 12.003 22.8027 11.7972 23.2293 11.9698C24.7548 12.5873 25.8333 14.0834 25.8333 15.8333C25.8333 17.5833 24.7548 19.0793 23.2293 19.6968C22.8027 19.8695 22.3169 19.6637 22.1442 19.237C21.9715 18.8104 22.1774 18.3246 22.604 18.1519C23.5217 17.7804 24.1666 16.8812 24.1666 15.8333C24.1666 14.7855 23.5217 13.8862 22.604 13.5147C22.1774 13.3421 21.9715 12.8562 22.1442 12.4296ZM16.637 21.6667H19.1962C19.9477 21.6667 20.5539 21.6667 21.0472 21.7003C21.5545 21.7349 22.0031 21.8079 22.4278 21.9838C23.4488 22.4067 24.2599 23.2179 24.6828 24.2388C24.8587 24.6636 24.9317 25.1121 24.9663 25.6194C25 26.1128 25 26.7189 25 27.4704V27.5C25 27.9602 24.6269 28.3333 24.1666 28.3333C23.7064 28.3333 23.3333 27.9602 23.3333 27.5C23.3333 26.712 23.3329 26.1628 23.3035 25.7329C23.2747 25.3104 23.2208 25.0644 23.143 24.8766C22.8893 24.2641 22.4026 23.7774 21.79 23.5236C21.6022 23.4458 21.3562 23.3919 20.9338 23.3631C20.5039 23.3338 19.9546 23.3333 19.1666 23.3333H16.6666C15.8787 23.3333 15.3294 23.3338 14.8995 23.3631C14.4771 23.3919 14.2311 23.4458 14.0433 23.5236C13.4307 23.7774 12.944 24.2641 12.6903 24.8766C12.6125 25.0644 12.5586 25.3104 12.5298 25.7329C12.5004 26.1628 12.5 26.712 12.5 27.5C12.5 27.9602 12.1269 28.3333 11.6666 28.3333C11.2064 28.3333 10.8333 27.9602 10.8333 27.5L10.8333 27.4704C10.8333 26.7189 10.8333 26.1128 10.867 25.6194C10.9016 25.1121 10.9745 24.6636 11.1505 24.2388C11.5734 23.2179 12.3845 22.4067 13.4055 21.9838C13.8302 21.8079 14.2788 21.7349 14.7861 21.7003C15.2794 21.6667 15.8856 21.6667 16.637 21.6667ZM25.0263 22.3973C25.141 21.9516 25.5953 21.6833 26.041 21.798C27.838 22.2605 29.1666 23.8907 29.1666 25.8333V27.5C29.1666 27.9602 28.7935 28.3333 28.3333 28.3333C27.8731 28.3333 27.5 27.9602 27.5 27.5V25.8333C27.5 24.6696 26.704 23.6896 25.6256 23.412C25.1799 23.2973 24.9116 22.843 25.0263 22.3973Z" fill="#898989"/>
</svg>
