<svg width="40" height="40" viewBox="0 0 40 40" fill="none" xmlns="http://www.w3.org/2000/svg">
<path fill-rule="evenodd" clip-rule="evenodd" d="M22.9166 10.8333C23.3769 10.8333 23.75 11.2064 23.75 11.6667V12.9167C23.75 13.3769 23.3769 13.75 22.9166 13.75C22.4564 13.75 22.0833 13.3769 22.0833 12.9167V11.6667C22.0833 11.2064 22.4564 10.8333 22.9166 10.8333ZM19.9959 11.6255C20.0414 12.0835 19.707 12.4916 19.249 12.5371C15.4599 12.9133 12.5 16.1115 12.5 20C12.5 20.0935 12.5017 20.1867 12.5051 20.2794C13.045 20.3696 13.6001 20.4167 14.1666 20.4167C16.9214 20.4167 19.4161 19.3033 21.2255 17.5H20C19.5397 17.5 19.1666 17.1269 19.1666 16.6667C19.1666 16.2064 19.5397 15.8333 20 15.8333H23.0064C23.0135 15.8332 23.0206 15.8332 23.0278 15.8333H23.3333C23.7935 15.8333 24.1666 16.2064 24.1666 16.6667V20C24.1666 20.4602 23.7935 20.8333 23.3333 20.8333C22.8731 20.8333 22.5 20.4602 22.5 20V18.5816C20.3832 20.7416 17.4316 22.0833 14.1666 22.0833C13.6942 22.0833 13.228 22.0552 12.7697 22.0005C13.6451 25.1714 16.5506 27.5 20 27.5C23.8885 27.5 27.0867 24.5401 27.4629 20.751C27.5084 20.293 27.9165 19.9586 28.3745 20.0041C28.8325 20.0495 29.1669 20.4577 29.1214 20.9157C28.6614 25.5488 24.7537 29.1667 20 29.1667C14.9374 29.1667 10.8333 25.0626 10.8333 20C10.8333 15.2463 14.4512 11.3386 19.0843 10.8786C19.5423 10.8331 19.9504 11.1675 19.9959 11.6255ZM27.6726 12.3274C27.998 12.6528 27.998 13.1805 27.6726 13.5059L26.7887 14.3898C26.4632 14.7152 25.9356 14.7152 25.6102 14.3898C25.2847 14.0644 25.2847 13.5367 25.6102 13.2113L26.4941 12.3274C26.8195 12.002 27.3471 12.002 27.6726 12.3274ZM26.2585 17.0833C26.2585 16.6231 26.6316 16.25 27.0919 16.25H28.3419C28.8021 16.25 29.1752 16.6231 29.1752 17.0833C29.1752 17.5436 28.8021 17.9167 28.3419 17.9167H27.0919C26.6316 17.9167 26.2585 17.5436 26.2585 17.0833Z" fill="#898989"/>
</svg>
