<svg width="40" height="40" viewBox="0 0 40 40" fill="none" xmlns="http://www.w3.org/2000/svg">
<path fill-rule="evenodd" clip-rule="evenodd" d="M15.8925 15.8449V17.5C15.8925 17.9602 16.2656 18.3333 16.7258 18.3333C17.186 18.3333 17.5591 17.9602 17.5591 17.5V15.8333L22.4409 15.8333V17.5C22.4409 17.9602 22.814 18.3333 23.2742 18.3333C23.7345 18.3333 24.1076 17.9602 24.1076 17.5V15.8449C24.2087 15.8488 24.3015 15.854 24.3879 15.8609C24.7148 15.887 24.883 15.934 25.0027 15.9918C25.2922 16.1318 25.5367 16.3574 25.7032 16.6422C25.7735 16.7625 25.8364 16.9335 25.8929 17.2655C25.9511 17.6071 25.9925 18.05 26.0526 18.7031L26.5438 24.0364C26.6149 24.8087 26.6628 25.3369 26.6665 25.7465C26.67 26.1477 26.6283 26.3536 26.5681 26.4962C26.4226 26.8411 26.1689 27.123 25.8509 27.2996C25.7227 27.3708 25.5312 27.4314 25.1419 27.4649C24.7433 27.4993 24.2243 27.5 23.4617 27.5H16.5384C15.7757 27.5 15.2568 27.4993 14.8582 27.4649C14.4688 27.4314 14.2774 27.3708 14.1492 27.2996C13.8311 27.123 13.5775 26.8411 13.4319 26.4962C13.3718 26.3536 13.33 26.1477 13.3336 25.7465C13.3372 25.3369 13.3852 24.8087 13.4563 24.0364L13.9474 18.7031C14.0076 18.05 14.0489 17.6071 14.1071 17.2655C14.1637 16.9335 14.2266 16.7625 14.2969 16.6422C14.4633 16.3574 14.7078 16.1318 14.9973 15.9918C15.117 15.934 15.2853 15.887 15.6121 15.8609C15.6985 15.854 15.7914 15.8488 15.8925 15.8449ZM24.0268 14.1749C24.2041 14.1797 24.3685 14.1874 24.5205 14.1995C24.9503 14.2338 25.3478 14.3075 25.7279 14.4912C26.3188 14.7768 26.8104 15.2336 27.1422 15.8014C27.3548 16.1651 27.4628 16.5563 27.5359 16.9856C27.6062 17.3981 27.6529 17.9052 27.7093 18.5183L28.2067 23.9191C28.2737 24.6471 28.3288 25.2446 28.3331 25.7317C28.3375 26.2352 28.2906 26.7012 28.1036 27.1442C27.8149 27.8283 27.3076 28.3971 26.6599 28.7567C26.2385 28.9907 25.7811 29.0827 25.285 29.1254C24.8063 29.1667 24.2152 29.1667 23.4983 29.1667H16.5017C15.7849 29.1667 15.1938 29.1667 14.7151 29.1254C14.219 29.0827 13.7616 28.9907 13.3401 28.7567C12.6924 28.3971 12.1851 27.8283 11.8964 27.1442C11.7094 26.7012 11.6625 26.2352 11.667 25.7317C11.6713 25.2446 11.7263 24.6471 11.7934 23.919L12.2907 18.5183C12.3472 17.9052 12.3939 17.3981 12.4641 16.9856C12.5373 16.5563 12.6453 16.1651 12.8579 15.8014C13.1896 15.2336 13.6813 14.7768 14.2721 14.4912C14.6522 14.3075 15.0497 14.2338 15.4795 14.1995C15.6316 14.1874 15.796 14.1797 15.9732 14.1749C16.3497 12.2778 17.9991 10.8333 20 10.8333C22.001 10.8333 23.6503 12.2778 24.0268 14.1749ZM22.3025 14.1667C21.9657 13.1895 21.0538 12.5 20 12.5C18.9463 12.5 18.0343 13.1895 17.6976 14.1667L22.3025 14.1667Z" fill="#898989"/>
</svg>
