<svg width="20" height="20" viewBox="0 0 20 20" fill="none" xmlns="http://www.w3.org/2000/svg">
<path fill-rule="evenodd" clip-rule="evenodd" d="M9.3012 0.833329H10.6988C11.1381 0.833314 11.517 0.833301 11.8292 0.858804C12.1586 0.885722 12.4863 0.945152 12.8016 1.10581C13.272 1.3455 13.6545 1.72795 13.8942 2.19835C14.0548 2.51367 14.1143 2.84135 14.1412 3.17081C14.164 3.45062 14.1664 3.78413 14.1666 4.16666H17.5C17.9602 4.16666 18.3333 4.53976 18.3333 5C18.3333 5.46023 17.9602 5.83333 17.5 5.83333H16.6667V14.3678C16.6667 15.0386 16.6667 15.5922 16.6298 16.0432C16.5916 16.5116 16.5094 16.9422 16.3033 17.3466C15.9838 17.9738 15.4738 18.4838 14.8466 18.8034C14.4422 19.0094 14.0116 19.0916 13.5432 19.1298C13.0922 19.1667 12.5386 19.1667 11.8678 19.1667H8.13222C7.46142 19.1667 6.90779 19.1667 6.4568 19.1298C5.98839 19.0916 5.5578 19.0094 5.15336 18.8034C4.52615 18.4838 4.01621 17.9738 3.69663 17.3466C3.49056 16.9422 3.40842 16.5116 3.37015 16.0432C3.3333 15.5922 3.33331 15.0386 3.33332 14.3677L3.33332 5.83333H2.49999C2.03975 5.83333 1.66666 5.46023 1.66666 5C1.66666 4.53976 2.03975 4.16666 2.49999 4.16666H5.83335C5.83358 3.78413 5.83594 3.45062 5.8588 3.17081C5.88572 2.84135 5.94515 2.51367 6.10581 2.19835C6.34549 1.72795 6.72794 1.3455 7.19835 1.10581C7.51366 0.945152 7.84135 0.885722 8.1708 0.858804C8.48294 0.833301 8.86191 0.833314 9.3012 0.833329ZM4.99999 5.83333V14.3333C4.99999 15.0471 5.00064 15.5324 5.03128 15.9075C5.06113 16.2728 5.11524 16.4596 5.18165 16.59C5.34143 16.9036 5.5964 17.1586 5.91001 17.3183C6.04034 17.3847 6.22718 17.4389 6.59252 17.4687C6.9676 17.4993 7.45284 17.5 8.16666 17.5H11.8333C12.5471 17.5 13.0324 17.4993 13.4075 17.4687C13.7728 17.4389 13.9596 17.3847 14.09 17.3183C14.4036 17.1586 14.6585 16.9036 14.8183 16.59C14.8847 16.4596 14.9388 16.2728 14.9687 15.9075C14.9993 15.5324 15 15.0471 15 14.3333V5.83333H4.99999ZM12.4999 4.16666H7.50005C7.50042 3.77908 7.50297 3.51415 7.51993 3.30653C7.53843 3.08014 7.56982 2.99621 7.59082 2.955C7.67071 2.7982 7.7982 2.67072 7.955 2.59082C7.9962 2.56983 8.08013 2.53843 8.30652 2.51994C8.54263 2.50064 8.85286 2.5 9.33332 2.5H10.6667C11.1471 2.5 11.4573 2.50064 11.6935 2.51994C11.9198 2.53843 12.0038 2.56983 12.045 2.59082C12.2018 2.67072 12.3293 2.7982 12.4092 2.955C12.4302 2.99621 12.4616 3.08014 12.4801 3.30653C12.497 3.51415 12.4996 3.77908 12.4999 4.16666ZM8.33332 8.75C8.79356 8.75 9.16666 9.12309 9.16666 9.58333V13.75C9.16666 14.2102 8.79356 14.5833 8.33332 14.5833C7.87309 14.5833 7.49999 14.2102 7.49999 13.75V9.58333C7.49999 9.12309 7.87309 8.75 8.33332 8.75ZM11.6667 8.75C12.1269 8.75 12.5 9.12309 12.5 9.58333V13.75C12.5 14.2102 12.1269 14.5833 11.6667 14.5833C11.2064 14.5833 10.8333 14.2102 10.8333 13.75V9.58333C10.8333 9.12309 11.2064 8.75 11.6667 8.75Z" fill="black"/>
</svg>
