<svg width="33" height="32" viewBox="0 0 33 32" fill="none" xmlns="http://www.w3.org/2000/svg">
<g clip-path="url(#clip0_135_2993)">
<rect x="0.5" width="32" height="32" rx="4" fill="#F5F5F5"/>
<path fill-rule="evenodd" clip-rule="evenodd" d="M14.8333 10.1667C14.8333 9.24619 15.5795 8.5 16.5 8.5C17.4205 8.5 18.1667 9.24619 18.1667 10.1667C18.1667 11.0871 17.4205 11.8333 16.5 11.8333C15.5795 11.8333 14.8333 11.0871 14.8333 10.1667ZM14.8333 16C14.8333 15.0795 15.5795 14.3333 16.5 14.3333C17.4205 14.3333 18.1667 15.0795 18.1667 16C18.1667 16.9205 17.4205 17.6667 16.5 17.6667C15.5795 17.6667 14.8333 16.9205 14.8333 16ZM14.8333 21.8333C14.8333 20.9129 15.5795 20.1667 16.5 20.1667C17.4205 20.1667 18.1667 20.9129 18.1667 21.8333C18.1667 22.7538 17.4205 23.5 16.5 23.5C15.5795 23.5 14.8333 22.7538 14.8333 21.8333Z" fill="black"/>
</g>
<defs>
<clipPath id="clip0_135_2993">
<rect x="0.5" width="32" height="32" rx="8" fill="white"/>
</clipPath>
</defs>
</svg>
